<svg id="visual" viewBox="0 0 1200 360" width="1200" height="360" xmlns="http://www.w3.org/2000/svg" xmlns:xlink="http://www.w3.org/1999/xlink" version="1.1"><path d="M0 30L16.7 30.5C33.3 31 66.7 32 100 29C133.3 26 166.7 19 200 16.7C233.3 14.3 266.7 16.7 300 20.8C333.3 25 366.7 31 400 29.8C433.3 28.7 466.7 20.3 500 19.7C533.3 19 566.7 26 600 27.8C633.3 29.7 666.7 26.3 700 28.2C733.3 30 766.7 37 800 38.7C833.3 40.3 866.7 36.7 900 37.3C933.3 38 966.7 43 1000 41.8C1033.3 40.7 1066.7 33.3 1100 33.3C1133.3 33.3 1166.7 40.7 1183.3 44.3L1200 48L1200 0L1183.3 0C1166.7 0 1133.3 0 1100 0C1066.7 0 1033.3 0 1000 0C966.7 0 933.3 0 900 0C866.7 0 833.3 0 800 0C766.7 0 733.3 0 700 0C666.7 0 633.3 0 600 0C566.7 0 533.3 0 500 0C466.7 0 433.3 0 400 0C366.7 0 333.3 0 300 0C266.7 0 233.3 0 200 0C166.7 0 133.3 0 100 0C66.7 0 33.3 0 16.7 0L0 0Z" fill="#2f11db"></path><path d="M0 51L16.7 63C33.3 75 66.7 99 100 98.5C133.3 98 166.7 73 200 61.7C233.3 50.3 266.7 52.7 300 58C333.3 63.3 366.7 71.7 400 80C433.3 88.3 466.7 96.7 500 96.2C533.3 95.7 566.7 86.3 600 87C633.3 87.7 666.7 98.3 700 98.8C733.3 99.3 766.7 89.7 800 87.3C833.3 85 866.7 90 900 96C933.3 102 966.7 109 1000 102.3C1033.3 95.7 1066.7 75.3 1100 70C1133.3 64.7 1166.7 74.3 1183.3 79.2L1200 84L1200 46L1183.3 42.3C1166.7 38.7 1133.3 31.3 1100 31.3C1066.7 31.3 1033.3 38.7 1000 39.8C966.7 41 933.3 36 900 35.3C866.7 34.7 833.3 38.3 800 36.7C766.7 35 733.3 28 700 26.2C666.7 24.3 633.3 27.7 600 25.8C566.7 24 533.3 17 500 17.7C466.7 18.3 433.3 26.7 400 27.8C366.7 29 333.3 23 300 18.8C266.7 14.7 233.3 12.3 200 14.7C166.7 17 133.3 24 100 27C66.7 30 33.3 29 16.7 28.5L0 28Z" fill="#0824c0"></path><path d="M0 95L16.7 102.7C33.3 110.3 66.7 125.7 100 129.8C133.3 134 166.7 127 200 121C233.3 115 266.7 110 300 108.2C333.3 106.3 366.7 107.7 400 117.3C433.3 127 466.7 145 500 143.2C533.3 141.3 566.7 119.7 600 114.3C633.3 109 666.7 120 700 126C733.3 132 766.7 133 800 134.2C833.3 135.3 866.7 136.7 900 139.7C933.3 142.7 966.7 147.3 1000 141.8C1033.3 136.3 1066.7 120.7 1100 114.2C1133.3 107.7 1166.7 110.3 1183.3 111.7L1200 113L1200 82L1183.3 77.2C1166.7 72.3 1133.3 62.7 1100 68C1066.7 73.3 1033.3 93.7 1000 100.3C966.7 107 933.3 100 900 94C866.7 88 833.3 83 800 85.3C766.7 87.7 733.3 97.3 700 96.8C666.7 96.3 633.3 85.7 600 85C566.7 84.3 533.3 93.7 500 94.2C466.7 94.7 433.3 86.3 400 78C366.7 69.7 333.3 61.3 300 56C266.7 50.7 233.3 48.3 200 59.7C166.7 71 133.3 96 100 96.5C66.7 97 33.3 73 16.7 61L0 49Z" fill="#002aa3"></path><path d="M0 113L16.7 119.5C33.3 126 66.7 139 100 145C133.3 151 166.7 150 200 148.8C233.3 147.7 266.7 146.3 300 143.3C333.3 140.3 366.7 135.7 400 142.3C433.3 149 466.7 167 500 167C533.3 167 566.7 149 600 146C633.3 143 666.7 155 700 159.7C733.3 164.3 766.7 161.7 800 160.3C833.3 159 866.7 159 900 160.3C933.3 161.7 966.7 164.3 1000 159C1033.3 153.7 1066.7 140.3 1100 133.7C1133.3 127 1166.7 127 1183.3 127L1200 127L1200 111L1183.3 109.7C1166.7 108.3 1133.3 105.7 1100 112.2C1066.7 118.7 1033.3 134.3 1000 139.8C966.7 145.3 933.3 140.7 900 137.7C866.7 134.7 833.3 133.3 800 132.2C766.7 131 733.3 130 700 124C666.7 118 633.3 107 600 112.3C566.7 117.7 533.3 139.3 500 141.2C466.7 143 433.3 125 400 115.3C366.7 105.7 333.3 104.3 300 106.2C266.7 108 233.3 113 200 119C166.7 125 133.3 132 100 127.8C66.7 123.7 33.3 108.3 16.7 100.7L0 93Z" fill="#002b85"></path><path d="M0 149L16.7 157.3C33.3 165.7 66.7 182.3 100 188.3C133.3 194.3 166.7 189.7 200 188.5C233.3 187.3 266.7 189.7 300 183C333.3 176.3 366.7 160.7 400 163.7C433.3 166.7 466.7 188.3 500 189C533.3 189.7 566.7 169.3 600 168.7C633.3 168 666.7 187 700 194.7C733.3 202.3 766.7 198.7 800 195.2C833.3 191.7 866.7 188.3 900 192.7C933.3 197 966.7 209 1000 201.7C1033.3 194.3 1066.7 167.7 1100 157.3C1133.3 147 1166.7 153 1183.3 156L1200 159L1200 125L1183.3 125C1166.7 125 1133.3 125 1100 131.7C1066.7 138.3 1033.3 151.7 1000 157C966.7 162.3 933.3 159.7 900 158.3C866.7 157 833.3 157 800 158.3C766.7 159.7 733.3 162.3 700 157.7C666.7 153 633.3 141 600 144C566.7 147 533.3 165 500 165C466.7 165 433.3 147 400 140.3C366.7 133.7 333.3 138.3 300 141.3C266.7 144.3 233.3 145.7 200 146.8C166.7 148 133.3 149 100 143C66.7 137 33.3 124 16.7 117.5L0 111Z" fill="#002765"></path><path d="M0 296L16.7 286.5C33.3 277 66.7 258 100 247.2C133.3 236.3 166.7 233.7 200 242C233.3 250.3 266.7 269.7 300 276.3C333.3 283 366.7 277 400 271C433.3 265 466.7 259 500 253.7C533.3 248.3 566.7 243.7 600 256.8C633.3 270 666.7 301 700 305.2C733.3 309.3 766.7 286.7 800 269.8C833.3 253 866.7 242 900 249.8C933.3 257.7 966.7 284.3 1000 294.7C1033.3 305 1066.7 299 1100 285.2C1133.3 271.3 1166.7 249.7 1183.3 238.8L1200 228L1200 157L1183.3 154C1166.7 151 1133.3 145 1100 155.3C1066.7 165.7 1033.3 192.3 1000 199.7C966.7 207 933.3 195 900 190.7C866.7 186.3 833.3 189.7 800 193.2C766.7 196.7 733.3 200.3 700 192.7C666.7 185 633.3 166 600 166.7C566.7 167.3 533.3 187.7 500 187C466.7 186.3 433.3 164.7 400 161.7C366.7 158.7 333.3 174.3 300 181C266.7 187.7 233.3 185.3 200 186.5C166.7 187.7 133.3 192.3 100 186.3C66.7 180.3 33.3 163.7 16.7 155.3L0 147Z" fill="#001e42"></path><path d="M0 361L16.7 361C33.3 361 66.7 361 100 361C133.3 361 166.7 361 200 361C233.3 361 266.7 361 300 361C333.3 361 366.7 361 400 361C433.3 361 466.7 361 500 361C533.3 361 566.7 361 600 361C633.3 361 666.7 361 700 361C733.3 361 766.7 361 800 361C833.3 361 866.7 361 900 361C933.3 361 966.7 361 1000 361C1033.3 361 1066.7 361 1100 361C1133.3 361 1166.7 361 1183.3 361L1200 361L1200 226L1183.3 236.8C1166.7 247.7 1133.3 269.3 1100 283.2C1066.7 297 1033.3 303 1000 292.7C966.7 282.3 933.3 255.7 900 247.8C866.7 240 833.3 251 800 267.8C766.7 284.7 733.3 307.3 700 303.2C666.7 299 633.3 268 600 254.8C566.7 241.7 533.3 246.3 500 251.7C466.7 257 433.3 263 400 269C366.7 275 333.3 281 300 274.3C266.7 267.7 233.3 248.3 200 240C166.7 231.7 133.3 234.3 100 245.2C66.7 256 33.3 275 16.7 284.5L0 294Z" fill="#001220"></path></svg>