<svg id="visual" viewBox="0 0 900 360" width="900" height="360" xmlns="http://www.w3.org/2000/svg" xmlns:xlink="http://www.w3.org/1999/xlink" version="1.1"><rect x="0" y="0" width="900" height="360" fill="#16f956"></rect><path d="M0 176L13.7 177.3C27.3 178.7 54.7 181.3 82 183.8C109.3 186.3 136.7 188.7 163.8 191.3C191 194 218 197 245.2 194.2C272.3 191.3 299.7 182.7 327 185.2C354.3 187.7 381.7 201.3 409 206C436.3 210.7 463.7 206.3 491 201.3C518.3 196.3 545.7 190.7 573 187.2C600.3 183.7 627.7 182.3 654.8 183.8C682 185.3 709 189.7 736.2 192C763.3 194.3 790.7 194.7 818 197C845.3 199.3 872.7 203.7 886.3 205.8L900 208L900 361L886.3 361C872.7 361 845.3 361 818 361C790.7 361 763.3 361 736.2 361C709 361 682 361 654.8 361C627.7 361 600.3 361 573 361C545.7 361 518.3 361 491 361C463.7 361 436.3 361 409 361C381.7 361 354.3 361 327 361C299.7 361 272.3 361 245.2 361C218 361 191 361 163.8 361C136.7 361 109.3 361 82 361C54.7 361 27.3 361 13.7 361L0 361Z" fill="#0fddf9"></path><path d="M0 201L13.7 208C27.3 215 54.7 229 82 229.7C109.3 230.3 136.7 217.7 163.8 217.3C191 217 218 229 245.2 230C272.3 231 299.7 221 327 217.8C354.3 214.7 381.7 218.3 409 219.8C436.3 221.3 463.7 220.7 491 222.7C518.3 224.7 545.7 229.3 573 226.3C600.3 223.3 627.7 212.7 654.8 210.3C682 208 709 214 736.2 218C763.3 222 790.7 224 818 224.7C845.3 225.3 872.7 224.7 886.3 224.3L900 224L900 361L886.3 361C872.7 361 845.3 361 818 361C790.7 361 763.3 361 736.2 361C709 361 682 361 654.8 361C627.7 361 600.3 361 573 361C545.7 361 518.3 361 491 361C463.7 361 436.3 361 409 361C381.7 361 354.3 361 327 361C299.7 361 272.3 361 245.2 361C218 361 191 361 163.8 361C136.7 361 109.3 361 82 361C54.7 361 27.3 361 13.7 361L0 361Z" fill="#00bcff"></path><path d="M0 251L13.7 248.7C27.3 246.3 54.7 241.7 82 239.8C109.3 238 136.7 239 163.8 243C191 247 218 254 245.2 257.2C272.3 260.3 299.7 259.7 327 258.3C354.3 257 381.7 255 409 252.5C436.3 250 463.7 247 491 249C518.3 251 545.7 258 573 257.7C600.3 257.3 627.7 249.7 654.8 248.3C682 247 709 252 736.2 252.8C763.3 253.7 790.7 250.3 818 248.2C845.3 246 872.7 245 886.3 244.5L900 244L900 361L886.3 361C872.7 361 845.3 361 818 361C790.7 361 763.3 361 736.2 361C709 361 682 361 654.8 361C627.7 361 600.3 361 573 361C545.7 361 518.3 361 491 361C463.7 361 436.3 361 409 361C381.7 361 354.3 361 327 361C299.7 361 272.3 361 245.2 361C218 361 191 361 163.8 361C136.7 361 109.3 361 82 361C54.7 361 27.3 361 13.7 361L0 361Z" fill="#0093ff"></path><path d="M0 293L13.7 292.7C27.3 292.3 54.7 291.7 82 288C109.3 284.3 136.7 277.7 163.8 278.7C191 279.7 218 288.3 245.2 291.3C272.3 294.3 299.7 291.7 327 291.5C354.3 291.3 381.7 293.7 409 291.8C436.3 290 463.7 284 491 281.8C518.3 279.7 545.7 281.3 573 280.3C600.3 279.3 627.7 275.7 654.8 273.8C682 272 709 272 736.2 272.8C763.3 273.7 790.7 275.3 818 279.5C845.3 283.7 872.7 290.3 886.3 293.7L900 297L900 361L886.3 361C872.7 361 845.3 361 818 361C790.7 361 763.3 361 736.2 361C709 361 682 361 654.8 361C627.7 361 600.3 361 573 361C545.7 361 518.3 361 491 361C463.7 361 436.3 361 409 361C381.7 361 354.3 361 327 361C299.7 361 272.3 361 245.2 361C218 361 191 361 163.8 361C136.7 361 109.3 361 82 361C54.7 361 27.3 361 13.7 361L0 361Z" fill="#0061f6"></path><path d="M0 319L13.7 320.5C27.3 322 54.7 325 82 323.7C109.3 322.3 136.7 316.7 163.8 315.7C191 314.7 218 318.3 245.2 320.8C272.3 323.3 299.7 324.7 327 323C354.3 321.3 381.7 316.7 409 315.3C436.3 314 463.7 316 491 316.7C518.3 317.3 545.7 316.7 573 315.3C600.3 314 627.7 312 654.8 312.8C682 313.7 709 317.3 736.2 320.3C763.3 323.3 790.7 325.7 818 325.5C845.3 325.3 872.7 322.7 886.3 321.3L900 320L900 361L886.3 361C872.7 361 845.3 361 818 361C790.7 361 763.3 361 736.2 361C709 361 682 361 654.8 361C627.7 361 600.3 361 573 361C545.7 361 518.3 361 491 361C463.7 361 436.3 361 409 361C381.7 361 354.3 361 327 361C299.7 361 272.3 361 245.2 361C218 361 191 361 163.8 361C136.7 361 109.3 361 82 361C54.7 361 27.3 361 13.7 361L0 361Z" fill="#2f11db"></path></svg>