<svg id="visual" viewBox="0 0 900 360" width="900" height="360" xmlns="http://www.w3.org/2000/svg" xmlns:xlink="http://www.w3.org/1999/xlink" version="1.1"><path d="M0 59L15 53.5C30 48 60 37 90 31.5C120 26 150 26 180 27.2C210 28.3 240 30.7 270 35.5C300 40.3 330 47.7 360 50.7C390 53.7 420 52.3 450 53C480 53.7 510 56.3 540 58.8C570 61.3 600 63.7 630 60.7C660 57.7 690 49.3 720 45.7C750 42 780 43 810 45.3C840 47.7 870 51.3 885 53.2L900 55L900 0L885 0C870 0 840 0 810 0C780 0 750 0 720 0C690 0 660 0 630 0C600 0 570 0 540 0C510 0 480 0 450 0C420 0 390 0 360 0C330 0 300 0 270 0C240 0 210 0 180 0C150 0 120 0 90 0C60 0 30 0 15 0L0 0Z" fill="#2f11db"></path><path d="M0 149L15 143C30 137 60 125 90 123.7C120 122.3 150 131.7 180 142.3C210 153 240 165 270 166.8C300 168.7 330 160.3 360 150.8C390 141.3 420 130.7 450 124.2C480 117.7 510 115.3 540 127.3C570 139.3 600 165.7 630 168.7C660 171.7 690 151.3 720 142.3C750 133.3 780 135.7 810 136.2C840 136.7 870 135.3 885 134.7L900 134L900 53L885 51.2C870 49.3 840 45.7 810 43.3C780 41 750 40 720 43.7C690 47.3 660 55.7 630 58.7C600 61.7 570 59.3 540 56.8C510 54.3 480 51.7 450 51C420 50.3 390 51.7 360 48.7C330 45.7 300 38.3 270 33.5C240 28.7 210 26.3 180 25.2C150 24 120 24 90 29.5C60 35 30 46 15 51.5L0 57Z" fill="#0028b2"></path><path d="M0 217L15 211.7C30 206.3 60 195.7 90 190.8C120 186 150 187 180 193C210 199 240 210 270 214.8C300 219.7 330 218.3 360 210.5C390 202.7 420 188.3 450 186C480 183.7 510 193.3 540 210.2C570 227 600 251 630 251C660 251 690 227 720 219.7C750 212.3 780 221.7 810 219.8C840 218 870 205 885 198.5L900 192L900 132L885 132.7C870 133.3 840 134.7 810 134.2C780 133.7 750 131.3 720 140.3C690 149.3 660 169.7 630 166.7C600 163.7 570 137.3 540 125.3C510 113.3 480 115.7 450 122.2C420 128.7 390 139.3 360 148.8C330 158.3 300 166.7 270 164.8C240 163 210 151 180 140.3C150 129.7 120 120.3 90 121.7C60 123 30 135 15 141L0 147Z" fill="#002b85"></path><path d="M0 311L15 309.7C30 308.3 60 305.7 90 309.2C120 312.7 150 322.3 180 321.8C210 321.3 240 310.7 270 305.3C300 300 330 300 360 303C390 306 420 312 450 315C480 318 510 318 540 318C570 318 600 318 630 316.2C660 314.3 690 310.7 720 314.2C750 317.7 780 328.3 810 330.2C840 332 870 325 885 321.5L900 318L900 190L885 196.5C870 203 840 216 810 217.8C780 219.7 750 210.3 720 217.7C690 225 660 249 630 249C600 249 570 225 540 208.2C510 191.3 480 181.7 450 184C420 186.3 390 200.7 360 208.5C330 216.3 300 217.7 270 212.8C240 208 210 197 180 191C150 185 120 184 90 188.8C60 193.7 30 204.3 15 209.7L0 215Z" fill="#002353"></path><path d="M0 361L15 361C30 361 60 361 90 361C120 361 150 361 180 361C210 361 240 361 270 361C300 361 330 361 360 361C390 361 420 361 450 361C480 361 510 361 540 361C570 361 600 361 630 361C660 361 690 361 720 361C750 361 780 361 810 361C840 361 870 361 885 361L900 361L900 316L885 319.5C870 323 840 330 810 328.2C780 326.3 750 315.7 720 312.2C690 308.7 660 312.3 630 314.2C600 316 570 316 540 316C510 316 480 316 450 313C420 310 390 304 360 301C330 298 300 298 270 303.3C240 308.7 210 319.3 180 319.8C150 320.3 120 310.7 90 307.2C60 303.7 30 306.3 15 307.7L0 309Z" fill="#001220"></path></svg>