<svg id="visual" viewBox="0 0 1200 300" width="1200" height="300" xmlns="http://www.w3.org/2000/svg" xmlns:xlink="http://www.w3.org/1999/xlink" version="1.1"><path d="M0 49L20 44.5C40 40 80 31 120 26.5C160 22 200 22 240 23C280 24 320 26 360 30C400 34 440 40 480 42.5C520 45 560 44 600 44.5C640 45 680 47 720 49C760 51 800 53 840 50.5C880 48 920 41 960 38C1000 35 1040 36 1080 38C1120 40 1160 43 1180 44.5L1200 46L1200 0L1180 0C1160 0 1120 0 1080 0C1040 0 1000 0 960 0C920 0 880 0 840 0C800 0 760 0 720 0C680 0 640 0 600 0C560 0 520 0 480 0C440 0 400 0 360 0C320 0 280 0 240 0C200 0 160 0 120 0C80 0 40 0 20 0L0 0Z" fill="#2f11db"></path><path d="M0 124L20 119C40 114 80 104 120 103C160 102 200 110 240 119C280 128 320 138 360 139.5C400 141 440 134 480 126C520 118 560 109 600 103.5C640 98 680 96 720 106C760 116 800 138 840 140.5C880 143 920 126 960 118.5C1000 111 1040 113 1080 113.5C1120 114 1160 113 1180 112.5L1200 112L1200 44L1180 42.5C1160 41 1120 38 1080 36C1040 34 1000 33 960 36C920 39 880 46 840 48.5C800 51 760 49 720 47C680 45 640 43 600 42.5C560 42 520 43 480 40.5C440 38 400 32 360 28C320 24 280 22 240 21C200 20 160 20 120 24.5C80 29 40 38 20 42.5L0 47Z" fill="#0028b2"></path><path d="M0 181L20 176.5C40 172 80 163 120 159C160 155 200 156 240 161C280 166 320 175 360 179C400 183 440 182 480 175.5C520 169 560 157 600 155C640 153 680 161 720 175C760 189 800 209 840 209C880 209 920 189 960 183C1000 177 1040 185 1080 183.5C1120 182 1160 171 1180 165.5L1200 160L1200 110L1180 110.5C1160 111 1120 112 1080 111.5C1040 111 1000 109 960 116.5C920 124 880 141 840 138.5C800 136 760 114 720 104C680 94 640 96 600 101.5C560 107 520 116 480 124C440 132 400 139 360 137.5C320 136 280 126 240 117C200 108 160 100 120 101C80 102 40 112 20 117L0 122Z" fill="#002b85"></path><path d="M0 259L20 258C40 257 80 255 120 258C160 261 200 269 240 268.5C280 268 320 259 360 254.5C400 250 440 250 480 252.5C520 255 560 260 600 262.5C640 265 680 265 720 265C760 265 800 265 840 263.5C880 262 920 259 960 262C1000 265 1040 274 1080 275.5C1120 277 1160 271 1180 268L1200 265L1200 158L1180 163.5C1160 169 1120 180 1080 181.5C1040 183 1000 175 960 181C920 187 880 207 840 207C800 207 760 187 720 173C680 159 640 151 600 153C560 155 520 167 480 173.5C440 180 400 181 360 177C320 173 280 164 240 159C200 154 160 153 120 157C80 161 40 170 20 174.5L0 179Z" fill="#002353"></path><path d="M0 301L20 301C40 301 80 301 120 301C160 301 200 301 240 301C280 301 320 301 360 301C400 301 440 301 480 301C520 301 560 301 600 301C640 301 680 301 720 301C760 301 800 301 840 301C880 301 920 301 960 301C1000 301 1040 301 1080 301C1120 301 1160 301 1180 301L1200 301L1200 263L1180 266C1160 269 1120 275 1080 273.5C1040 272 1000 263 960 260C920 257 880 260 840 261.5C800 263 760 263 720 263C680 263 640 263 600 260.5C560 258 520 253 480 250.5C440 248 400 248 360 252.5C320 257 280 266 240 266.5C200 267 160 259 120 256C80 253 40 255 20 256L0 257Z" fill="#001220"></path></svg>