<svg id="visual" viewBox="0 0 900 360" width="900" height="360" xmlns="http://www.w3.org/2000/svg" xmlns:xlink="http://www.w3.org/1999/xlink" version="1.1"><rect x="0" y="0" width="900" height="360" fill="#d8de23"></rect><path d="M0 14L9.3 15.2C18.7 16.3 37.3 18.7 56.2 19.5C75 20.3 94 19.7 112.8 19.8C131.7 20 150.3 21 169 21C187.7 21 206.3 20 225 18.3C243.7 16.7 262.3 14.3 281.2 13.8C300 13.3 319 14.7 337.8 16.3C356.7 18 375.3 20 394 21C412.7 22 431.3 22 450 21C468.7 20 487.3 18 506.2 16.3C525 14.7 544 13.3 562.8 13.8C581.7 14.3 600.3 16.7 619 17.3C637.7 18 656.3 17 675 16.5C693.7 16 712.3 16 731.2 15.2C750 14.3 769 12.7 787.8 13.2C806.7 13.7 825.3 16.3 844 17.3C862.7 18.3 881.3 17.7 890.7 17.3L900 17L900 0L890.7 0C881.3 0 862.7 0 844 0C825.3 0 806.7 0 787.8 0C769 0 750 0 731.2 0C712.3 0 693.7 0 675 0C656.3 0 637.7 0 619 0C600.3 0 581.7 0 562.8 0C544 0 525 0 506.2 0C487.3 0 468.7 0 450 0C431.3 0 412.7 0 394 0C375.3 0 356.7 0 337.8 0C319 0 300 0 281.2 0C262.3 0 243.7 0 225 0C206.3 0 187.7 0 169 0C150.3 0 131.7 0 112.8 0C94 0 75 0 56.2 0C37.3 0 18.7 0 9.3 0L0 0Z" fill="#FCAF3C" stroke-linecap="round" stroke-linejoin="miter"></path></svg>